<svg fill="none" viewBox="0 0 24 24" xmlns="http://www.w3.org/2000/svg" width="1em" height="1em"
  focusable="false" aria-hidden="true">
  <g fill="currentColor">
    <path
      d="m10.71375 2.929117q.59607-.329117 1.28759-.329117.69143 0 1.2875.329117l6.29306 3.445623q.6051.33033.9589.91158.3592.59002.3592 1.27317v6.88101q0 .6829-.3604 1.2738-.3536.5798-.9572.9107l-6.29636 3.4474q-.59309.3276-1.2847.3276-.6917 0-1.28767-.3291l-6.295511-3.4455q-.604055-.3315-.957582-.911-.360577-.591-.360577-1.2739v-6.88101q0-.68285.360586-1.27391.353513-.57948.95673-.91045l6.299374-3.447627zm.86711 1.577373-6.29768 3.4467q-.38318.21024-.38318.6063v6.88101q0 .3961.38233.6059l6.30155 3.4488q.18978.1048.41746.1048.22759 0 .42025-.1064l6.29541-3.4469q.383-.21.383-.6062v-6.88101q0-.39709-.3825-.60591l-6.29871-3.4487q-.18994-.10488-.41745-.10488-.2276 0-.41754.10488z"></path>
    <path
      d="m12 7.6q1.82254 0 3.11127 1.28873 1.28873 1.28873 1.28873 3.11127 0 1.82254-1.28873 3.11127-1.28873 1.28873-3.11127 1.28873-1.82254 0-3.11127-1.28873-1.28873-1.28873-1.28873-3.11127 0-1.82254 1.28873-3.11127 1.28873-1.28873 3.11127-1.28873zm0 1.8q-1.07696 0-1.83848.76152-.76152.76152-.76152 1.83848 0 1.07696.76152 1.83848.76152.76152 1.83848.76152 1.07696 0 1.83848-.76152.76152-.76153.76152-1.83848 0-1.07696-.76152-1.83848-.76152-.76152-1.83848-.76152z"></path>
  </g>
</svg>