<svg xmlns="http://www.w3.org/2000/svg" xmlns:xlink="http://www.w3.org/1999/xlink" fill="none"
  viewBox="0 0 24 24" width="1em" height="1em" focusable="false" aria-hidden="true">
  <g>
    <g>
      <path
        d="M6.00211,17.8928L6.0020500000000006,11.09219L6.90205,11.092179999999999L7.22534,11.93211L5.99461,12.40583Q5.328250000000001,12.66214,4.66146,12.40723Q4.00852,12.15762,3.664513,11.53309L2.349776,9.14626Q1.96559,8.448789999999999,2.1624499999999998,7.67268Q2.36253,6.88389,3.0438065,6.47162L6.2996300000000005,4.499749243Q7.78627,3.599376,9.49844,3.6Q10.01324,3.600188,10.40513,3.941887Q10.77616,4.265395,10.87117,4.755534Q10.955739999999999,5.191784,11.28296,5.471834Q11.59915,5.74244,12.00234,5.74244Q12.40553,5.74244,12.72172,5.471834Q13.0489,5.191785,13.1335,4.755535Q13.2286,4.264796,13.6004,3.941183Q13.993,3.599358,14.5084,3.600001Q16.219099999999997,3.602136,17.704700000000003,4.5011586L20.9607,6.47153Q21.5949,6.85527,21.8132,7.5784199999999995Q22.0254,8.28152,21.739,8.97314Q21.728,8.99977,21.7153,9.02563L21.6744,9.108889999999999Q21.6651,9.1278,21.6549,9.14626L20.3402,11.53309Q20.024,12.10703,19.4365,12.36607Q18.8432,12.62761,18.2018,12.46732Q18.171,12.459620000000001,18.140900000000002,12.44978L18.0541,12.42147Q18.0318,12.41421,18.009999999999998,12.4058L16.7792,11.9321L17.1025,11.09217L18.002499999999998,11.09216L18.0026,17.8928Q18.0026,18.9133,17.320999999999998,19.6434Q16.6147,20.4,15.6022,20.4L8.40248,20.4Q7.38997,20.4,6.68369,19.6434Q6.00213,18.9133,6.00211,17.8928L6.00211,17.8928ZM7.80211,17.8928Q7.80212,18.203699999999998,7.99945,18.415100000000002Q8.17206,18.6,8.40248,18.6L15.6022,18.6Q15.8326,18.6,16.005200000000002,18.415100000000002Q16.2026,18.203699999999998,16.2026,17.8928L16.2025,11.09217Q16.2025,10.924949999999999,16.2626,10.7689Q16.2944,10.68617,16.3418,10.611239999999999Q16.3891,10.53632,16.450200000000002,10.47207Q16.5113,10.40783,16.5837,10.356729999999999Q16.656100000000002,10.30564,16.7372,10.26965Q16.818199999999997,10.23367,16.904600000000002,10.214179999999999Q16.9911,10.194700000000001,17.079700000000003,10.192450000000001Q17.168300000000002,10.19021,17.255699999999997,10.205300000000001Q17.343,10.22039,17.425800000000002,10.25223L18.6565,10.72593L18.3333,11.56586L18.6125,10.71026L18.699199999999998,10.73857L18.42,11.59417L18.638199999999998,10.721029999999999Q18.7211,10.74172,18.7635,10.66464L20.0783,8.2778L20.8666,8.71203L20.0588,8.31518L20.0997,8.23192L20.9075,8.62877L20.076,8.2844Q20.1569,8.08902,20.0288,8.0115L16.7728,6.04114Q15.7158,5.40151,14.5062,5.4Q14.842,5.400419,14.9006,5.098086Q14.6965,6.15093,13.8921,6.839370000000001Q13.0706,7.54244,12.00234,7.54244Q10.93405,7.54244,10.11256,6.839370000000001Q9.30816,6.15093,9.10407,5.098086Q9.162569999999999,5.399878,9.49779,5.4Q8.28855,5.39956,7.2321,6.03939L3.975721,8.0116Q3.828764,8.10053,3.926412,8.2778L5.24115,10.66464Q5.287710000000001,10.74917,5.34802,10.72597L6.57876,10.25225Q6.73482,10.19218,6.9020399999999995,10.19218Q6.99069,10.19218,7.07763,10.20947Q7.16457,10.22677,7.24646,10.26069Q7.32835,10.294609999999999,7.40206,10.34385Q7.47576,10.3931,7.53844,10.45578Q7.60112,10.518460000000001,7.65037,10.59216Q7.69962,10.66586,7.73354,10.74776Q7.76746,10.82965,7.78476,10.91659Q7.80205,11.00353,7.80205,11.09217L7.80211,17.8928L7.80211,17.8928Z"
        fill="currentColor" fill-opacity="1"></path>
    </g>
  </g>
</svg>